<svg id="Lag_2" data-name="Lag 2" xmlns="http://www.w3.org/2000/svg" width="47.885" height="47.885" viewBox="0 0 47.885 47.885">
  <g id="Lag_4" data-name="Lag 4" transform="translate(8.882 9.428)">
    <path id="Path_36" data-name="Path 36" d="M22.63,38.9v-.44c0-.09.027-.177.035-.267a12.862,12.862,0,0,1,.341-2.685,14.982,14.982,0,0,1,26.411-5.687,14.2,14.2,0,0,1,3.014,8.011,14.012,14.012,0,0,1-.55,4.875A14.915,14.915,0,0,1,36.968,53.328a14.052,14.052,0,0,1-3.375-.51,14.7,14.7,0,0,1-8.792-6.57,14,14,0,0,1-2.131-7.1A1.775,1.775,0,0,0,22.63,38.9Zm19.876-9.628-1.9-.114a7.921,7.921,0,0,0-1.962.09,4.051,4.051,0,0,0-2.657,1.66,4.588,4.588,0,0,0-.785,2.661v2.963H32.223V40.07h2.991v8.737H38.9V40.034h2.838c.157-1.177.314-2.335.471-3.532H38.9V34.088a3.82,3.82,0,0,1,.039-.561,1.1,1.1,0,0,1,.836-.989,2.331,2.331,0,0,1,.546-.09h2.171Z" transform="translate(-22.63 -24.02)" fill="#fff"/>
  </g>
  <g id="Lag_5" data-name="Lag 5" transform="translate(0)">
    <path id="Path_5" data-name="Path 5" d="M23.942,0A23.942,23.942,0,1,0,47.885,23.942,23.942,23.942,0,0,0,23.942,0Zm0,45.137A21.195,21.195,0,1,1,45.137,23.942,21.195,21.195,0,0,1,23.942,45.137Z" transform="translate(0)" fill="#fff"/>
  </g>
</svg>
