<svg id="Lag_2" data-name="Lag 2" xmlns="http://www.w3.org/2000/svg" width="47.885" height="47.885" viewBox="0 0 47.885 47.885">
  <g id="Lag_5" data-name="Lag 5" transform="translate(0)">
    <path id="Path_6" data-name="Path 6" d="M23.942,0A23.942,23.942,0,1,0,47.885,23.942,23.942,23.942,0,0,0,23.942,0Zm0,45.137A21.195,21.195,0,1,1,45.137,23.942,21.195,21.195,0,0,1,23.942,45.137Z" transform="translate(0)"/>
  </g>
  <g id="Lag_3" data-name="Lag 3" transform="translate(9.275 9.426)">
    <g id="Lag_2-2" data-name="Lag 2-2">
      <path id="Path_1" data-name="Path 1" d="M23.63,38.709c.035-2.006.055-4.011.114-6.017a9.471,9.471,0,0,1,1.291-4.847,7.611,7.611,0,0,1,5.161-3.5,20.41,20.41,0,0,1,4-.314c2.924-.02,5.88-.02,8.812.012a14.3,14.3,0,0,1,4.569.593,7.509,7.509,0,0,1,5.059,5.6,18.11,18.11,0,0,1,.392,4.317c0,2.932.024,5.86,0,8.788a13.882,13.882,0,0,1-.577,4.573,7.554,7.554,0,0,1-5.613,5.1,18.086,18.086,0,0,1-4.317.393c-2.94.024-5.887.027-8.819,0a13.759,13.759,0,0,1-4.565-.593,7.61,7.61,0,0,1-5.075-5.648,18.934,18.934,0,0,1-.393-4.317c-.027-1.386,0-2.747,0-4.153Zm15.146,12.1c1.935-.071,4.29-.071,6.625-.275a4.961,4.961,0,0,0,4.671-4.055,19.11,19.11,0,0,0,.3-4.1c.027-2.669,0-5.342-.02-8.015a24.139,24.139,0,0,0-.228-3.1A4.969,4.969,0,0,0,46.1,26.981a19.625,19.625,0,0,0-4.125-.3c-2.661-.031-5.322,0-7.983.024a23.5,23.5,0,0,0-3.1.228,4.953,4.953,0,0,0-4.259,4.035,20.045,20.045,0,0,0-.3,4q-.063,2.673,0,5.346c.031,1.809.082,3.623.2,5.428a5.1,5.1,0,0,0,1.1,2.873,5.478,5.478,0,0,0,4.286,1.994C34.055,50.7,36.21,50.739,38.777,50.805Z" transform="translate(-23.63 -24.016)"/>
      <path id="Path_2" data-name="Path 2" d="M49.157,56.65a7.76,7.76,0,1,1,.126,0Zm.043-12.43a4.894,4.894,0,1,0,4.879,4.9h0A4.922,4.922,0,0,0,49.2,44.219Z" transform="translate(-34.462 -34.413)"/>
      <path id="Path_3" data-name="Path 3" d="M78.368,37a1.731,1.731,0,0,1,1.747,1.707.5.5,0,0,1,0,.078,1.766,1.766,0,0,1-1.762,1.747,1.806,1.806,0,0,1-1.782-1.79A1.77,1.77,0,0,1,78.352,37Z" transform="translate(-55.791 -31.904)"/>
    </g>
  </g>
</svg>
