<svg id="Lag_2" data-name="Lag 2" xmlns="http://www.w3.org/2000/svg" width="41.809" height="43.622" viewBox="0 0 41.809 43.622">
  <g id="Lag_5" data-name="Lag 5">
    <path id="Path_38" data-name="Path 38" d="M20.9,0C9.359,0,0,9.765,0,21.811S9.359,43.622,20.9,43.622s20.9-9.765,20.9-21.811S32.449,0,20.9,0Zm0,41.119C10.684,41.119,2.4,32.474,2.4,21.811S10.684,2.5,20.9,2.5,39.41,11.147,39.41,21.811,31.125,41.119,20.9,41.119Z" transform="translate(0)" fill="#f8d560"/>
  </g>
  <g id="Lag_7" data-name="Lag 7" transform="translate(9.113 4.946)">
    <g id="signs">
      <path id="Path_39" data-name="Path 39" d="M39.986,18c-6.4.007-11.58,5.63-11.586,12.569,0,10.846,10.539,20.312,10.972,20.71a.912.912,0,0,0,1.225,0c.447-.394,10.972-9.856,10.972-20.71C51.562,23.631,46.381,18.009,39.986,18Zm0,8.386a4.033,4.033,0,0,1,3.86,4.187,3.872,3.872,0,1,1-7.719,0A4.033,4.033,0,0,1,39.986,26.386Z" transform="translate(-28.4 -18)" fill="#f8d560"/>
    </g>
  </g>
</svg>
