<svg id="Lag_2" data-name="Lag 2" xmlns="http://www.w3.org/2000/svg" width="47.77" height="47.77" viewBox="0 0 47.77 47.77">
  <g id="Lag_5" data-name="Lag 5">
    <path id="Path_38" data-name="Path 38" d="M23.885,0A23.885,23.885,0,1,0,47.77,23.885,23.885,23.885,0,0,0,23.885,0Zm0,45.029A21.144,21.144,0,1,1,45.029,23.885,21.144,21.144,0,0,1,23.885,45.029Z" transform="translate(0)" fill="#f8d560"/>
  </g>
  <g id="Lag_7" data-name="Lag 7" transform="translate(12.516 8.909)">
    <g id="signs">
      <path id="Path_39" data-name="Path 39" d="M39.487,18A11.1,11.1,0,0,0,28.4,29.087C28.4,38.654,38.485,47,38.9,47.355a.929.929,0,0,0,1.172,0c.428-.348,10.5-8.694,10.5-18.268A11.1,11.1,0,0,0,39.487,18Zm0,7.4a3.693,3.693,0,1,1-3.693,3.693A3.693,3.693,0,0,1,39.487,25.4Z" transform="translate(-28.4 -18)" fill="#f8d560"/>
    </g>
  </g>
</svg>
