<svg id="Lag_2" data-name="Lag 2" xmlns="http://www.w3.org/2000/svg" width="44.726" height="42.622" viewBox="0 0 44.726 42.622">
  <g id="Lag_5" data-name="Lag 5" transform="translate(0)">
    <path id="Path_36" data-name="Path 36" d="M22.363,0C10.012,0,0,9.541,0,21.311S10.012,42.622,22.363,42.622s22.363-9.541,22.363-21.311S34.714,0,22.363,0Zm0,40.176c-10.934,0-19.8-8.446-19.8-18.865S11.43,2.446,22.363,2.446s19.8,8.446,19.8,18.865S33.3,40.176,22.363,40.176Z" transform="translate(0)" fill="#f8d560"/>
  </g>
  <g id="Lag_7" data-name="Lag 7" transform="translate(8.432 12.228)">
    <g id="envelopes">
      <g id="Group_28" data-name="Group 28" transform="translate(18.47 3.364)">
        <g id="Group_27" data-name="Group 27">
          <path id="Path_32" data-name="Path 32" d="M73.38,50.527l9.393,5.66V44.63Z" transform="translate(-73.38 -44.63)" fill="#f8d560"/>
        </g>
      </g>
      <g id="Group_30" data-name="Group 30" transform="translate(0 3.364)">
        <g id="Group_29" data-name="Group 29">
          <path id="Path_33" data-name="Path 33" d="M23,44.63V56.187l9.393-5.66Z" transform="translate(-23 -44.63)" fill="#f8d560"/>
        </g>
      </g>
      <g id="Group_32" data-name="Group 32" transform="translate(0.051)">
        <g id="Group_31" data-name="Group 31">
          <path id="Path_34" data-name="Path 34" d="M49.213,35H24.83a1.7,1.7,0,0,0-1.69,1.4l13.88,8.734L50.9,36.4A1.7,1.7,0,0,0,49.213,35Z" transform="translate(-23.14 -35)" fill="#f8d560"/>
        </g>
      </g>
      <g id="Group_34" data-name="Group 34" transform="translate(0.055 10.261)">
        <g id="Group_33" data-name="Group 33">
          <path id="Path_35" data-name="Path 35" d="M39.959,64.373l-2.453,1.544a.909.909,0,0,1-.957,0L34.093,64.37,23.15,70.959a1.7,1.7,0,0,0,1.686,1.4H49.216a1.7,1.7,0,0,0,1.686-1.4Z" transform="translate(-23.15 -64.37)" fill="#f8d560"/>
        </g>
      </g>
    </g>
  </g>
</svg>
