<svg id="Lag_2" data-name="Lag 2" xmlns="http://www.w3.org/2000/svg" width="42.728" height="42.728" viewBox="0 0 42.728 42.728">
  <g id="Lag_5" data-name="Lag 5" transform="translate(0)">
    <path id="Path_36" data-name="Path 36" d="M21.364,0A21.364,21.364,0,1,0,42.728,21.364,21.364,21.364,0,0,0,21.364,0Zm0,40.276A18.912,18.912,0,1,1,40.276,21.364,18.912,18.912,0,0,1,21.364,40.276Z" transform="translate(0)" fill="#fcfafa"/>
  </g>
  <g id="Lag_7" data-name="Lag 7" transform="translate(8.055 12.258)">
    <g id="envelopes">
      <g id="Group_28" data-name="Group 28" transform="translate(17.644 3.373)">
        <g id="Group_27" data-name="Group 27">
          <path id="Path_32" data-name="Path 32" d="M73.38,50.542l8.973,5.674V44.63Z" transform="translate(-73.38 -44.63)" fill="#fcfafa"/>
        </g>
      </g>
      <g id="Group_30" data-name="Group 30" transform="translate(0 3.373)">
        <g id="Group_29" data-name="Group 29">
          <path id="Path_33" data-name="Path 33" d="M23,44.63V56.216l8.973-5.674Z" transform="translate(-23 -44.63)" fill="#fcfafa"/>
        </g>
      </g>
      <g id="Group_32" data-name="Group 32" transform="translate(0.049)">
        <g id="Group_31" data-name="Group 31">
          <path id="Path_34" data-name="Path 34" d="M48.048,35H24.755a1.65,1.65,0,0,0-1.615,1.4L36.4,45.157,49.659,36.4A1.65,1.65,0,0,0,48.048,35Z" transform="translate(-23.14 -35)" fill="#fcfafa"/>
        </g>
      </g>
      <g id="Group_34" data-name="Group 34" transform="translate(0.053 10.286)">
        <g id="Group_33" data-name="Group 33">
          <path id="Path_35" data-name="Path 35" d="M39.208,64.373l-2.343,1.548a.834.834,0,0,1-.914,0L33.6,64.37,23.15,70.975a1.643,1.643,0,0,0,1.611,1.4h23.29a1.643,1.643,0,0,0,1.611-1.4Z" transform="translate(-23.15 -64.37)" fill="#fcfafa"/>
        </g>
      </g>
    </g>
  </g>
</svg>
