<svg id="Lag_2" data-name="Lag 2" xmlns="http://www.w3.org/2000/svg" width="42.523" height="42.523" viewBox="0 0 42.523 42.523">
  <g id="Lag_5" data-name="Lag 5" transform="translate(0)">
    <path id="Path_38" data-name="Path 38" d="M21.261,0A21.261,21.261,0,1,0,42.523,21.261,21.261,21.261,0,0,0,21.261,0Zm0,40.083A18.822,18.822,0,1,1,40.083,21.261,18.821,18.821,0,0,1,21.261,40.083Z" transform="translate(0)" fill="#fcfafa"/>
  </g>
  <g id="Lag_7" data-name="Lag 7" transform="translate(11.141 7.931)">
    <g id="signs">
      <path id="Path_39" data-name="Path 39" d="M38.269,18A9.878,9.878,0,0,0,28.4,27.869c0,8.516,8.977,15.949,9.346,16.262a.827.827,0,0,0,1.043,0c.381-.31,9.346-7.739,9.346-16.262A9.878,9.878,0,0,0,38.269,18Zm0,6.585a3.288,3.288,0,1,1-3.288,3.288A3.288,3.288,0,0,1,38.269,24.585Z" transform="translate(-28.4 -18)" fill="#fcfafa"/>
    </g>
  </g>
</svg>
