<svg id="Group_39" data-name="Group 39" xmlns="http://www.w3.org/2000/svg" width="33.432" height="32.276" viewBox="0 0 33.432 32.276">
  <g id="Group_20" data-name="Group 20" transform="translate(0 0)">
    <path id="Path_27" data-name="Path 27" d="M-1173.921-476.48h-5.058a3.334,3.334,0,0,0-.369-.02h-15.894a3.34,3.34,0,0,0-.38.022,3.357,3.357,0,0,0-2.5,1.613,3.333,3.333,0,0,0-.475,1.719v21.906h-4.677a.728.728,0,0,0-.728.728v2.936a3.353,3.353,0,0,0,3.353,3.353h5.76a3.337,3.337,0,0,0,.38-.022h15.159a3.354,3.354,0,0,0,2.852-1.592,3.332,3.332,0,0,0,.5-1.761l.009-21.993h4.69a.728.728,0,0,0,.728-.728v-2.807A3.353,3.353,0,0,0-1173.921-476.48Zm-20.691,30.621a1.734,1.734,0,0,1-.275.022h-5.76a1.74,1.74,0,0,1-1.741-1.74v-2.008h19.353v2.006a3.333,3.333,0,0,0,.476,1.72Zm17-1.74a1.742,1.742,0,0,1-1.74,1.74h-.6a1.744,1.744,0,0,1-1.473-1.72v-2.935a.728.728,0,0,0-.728-.728h-14.833v-21.906a1.743,1.743,0,0,1,1.466-1.719,1.735,1.735,0,0,1,.275-.022h15.894l2.225.021a3.334,3.334,0,0,0-.475,1.72Zm5.427-23.649h-3.805v-1.9a1.743,1.743,0,0,1,1.473-1.72h.591a1.74,1.74,0,0,1,1.741,1.74Z" transform="translate(1204 476.5)" fill="#fff"/>
  </g>
  <rect id="Rectangle_121" data-name="Rectangle 121" width="14.602" height="1.7" rx="0.85" transform="translate(9.415 7.955)" fill="#fff"/>
  <rect id="Rectangle_122" data-name="Rectangle 122" width="14.602" height="1.7" rx="0.85" transform="translate(9.415 13.359)" fill="#fff"/>
  <rect id="Rectangle_123" data-name="Rectangle 123" width="14.602" height="1.7" rx="0.85" transform="translate(9.415 18.764)" fill="#fff"/>
</svg>
