<svg id="Group_40" data-name="Group 40" xmlns="http://www.w3.org/2000/svg" width="37.463" height="35.838" viewBox="0 0 37.463 35.838">
  <path id="Path_28" data-name="Path 28" d="M1277.066,526.42a2.134,2.134,0,0,1-1.258-.416l-8.994-6.534L1257.821,526a2.14,2.14,0,0,1-3.293-2.393l3.435-10.573-8.993-6.534a2.14,2.14,0,0,1,1.258-3.871h11.117l3.435-10.573a2.14,2.14,0,0,1,4.07,0l3.435,10.573H1283.4a2.14,2.14,0,0,1,1.258,3.871l-8.994,6.534,3.435,10.573a2.109,2.109,0,0,1-.777,2.393A2.135,2.135,0,0,1,1277.066,526.42Zm-10.252-9.028,9.982,7.252a.459.459,0,0,0,.707-.514l-3.813-11.734,9.981-7.252a.459.459,0,0,0-.27-.831h-12.338l-3.813-11.734a.459.459,0,0,0-.874,0l-3.813,11.734h-12.338a.459.459,0,0,0-.27.831l9.981,7.252-3.813,11.734a.459.459,0,0,0,.707.514Z" transform="translate(-1248.083 -490.582)" fill="#fff"/>
</svg>
