<svg xmlns="http://www.w3.org/2000/svg" width="30.581" height="30.58" viewBox="0 0 30.581 30.58">
  <g id="Group_51" data-name="Group 51" transform="translate(-1518.949 -445.907)">
    <g id="Group_38" data-name="Group 38" transform="translate(1518.949 445.907)">
      <path id="Path_26" data-name="Path 26" d="M279.675,169.518a.759.759,0,0,1-.423.681l-3.478,1.708c0,.039,0,.08,0,.12a1.9,1.9,0,1,1-3.791,0,1.967,1.967,0,0,1,.022-.289l-6.32-3.946a.758.758,0,1,1,.8-1.286l6.33,3.953a1.892,1.892,0,0,1,2.259.1l3.5-1.721a.758.758,0,0,1,1.015.346A.749.749,0,0,1,279.675,169.518Z" transform="translate(-258.592 -156.737)" fill="#fff"/>
    </g>
    <g id="Group_49" data-name="Group 49" transform="translate(1518.949 445.907)">
      <path id="Path_25" data-name="Path 25" d="M227.29,90a15.29,15.29,0,1,0,15.291,15.29A15.308,15.308,0,0,0,227.29,90Zm.758,28.283V115.9a.758.758,0,0,0-1.516,0v2.378a13.034,13.034,0,0,1-12.237-12.263h2.381a.759.759,0,0,0,.758-.758.759.759,0,0,0-.758-.758H214.3A13.033,13.033,0,0,1,226.532,92.3v2.378a.759.759,0,0,0,.758.758.759.759,0,0,0,.758-.758V92.3A13.033,13.033,0,0,1,240.282,104.5h-2.377a.758.758,0,1,0,0,1.516h2.381A13.034,13.034,0,0,1,228.049,118.283Z" transform="translate(-212 -90)" fill="#fff"/>
      <path id="Path_40" data-name="Path 40" d="M227.29,90a15.29,15.29,0,1,0,15.291,15.29A15.308,15.308,0,0,0,227.29,90Zm.758,28.283V115.9a.758.758,0,0,0-1.516,0v2.378a13.034,13.034,0,0,1-12.237-12.263h2.381a.759.759,0,0,0,.758-.758.759.759,0,0,0-.758-.758H214.3A13.033,13.033,0,0,1,226.532,92.3v2.378a.759.759,0,0,0,.758.758.759.759,0,0,0,.758-.758V92.3A13.033,13.033,0,0,1,240.282,104.5h-2.377a.758.758,0,1,0,0,1.516h2.381A13.034,13.034,0,0,1,228.049,118.283Z" transform="translate(-212 -90)" fill="#fff"/>
    </g>
  </g>
</svg>
