<svg id="Lag_2" data-name="Lag 2" xmlns="http://www.w3.org/2000/svg" width="47.885" height="47.885" viewBox="0 0 47.885 47.885">
  <g id="Lag_5" data-name="Lag 5" transform="translate(0)">
    <path id="Path_7" data-name="Path 7" d="M23.942,0A23.942,23.942,0,1,0,47.885,23.942,23.942,23.942,0,0,0,23.942,0Zm0,45.137A21.195,21.195,0,1,1,45.137,23.942,21.195,21.195,0,0,1,23.942,45.137Z" transform="translate(0)"/>
  </g>
  <g id="Lag_2-2" data-name="Lag 2" transform="translate(8.666 13.345)">
    <path id="Path_8" data-name="Path 8" d="M35.7,34h3.356c2.422.027,4.847.082,7.265.259a19.194,19.194,0,0,1,2.59.306A3.713,3.713,0,0,1,51.878,37.3a9.753,9.753,0,0,1,.306,1.543,12.274,12.274,0,0,1,.161,1.692v6.916a16.386,16.386,0,0,1-.13,2.7,14.7,14.7,0,0,1-.338,1.9,3.713,3.713,0,0,1-3.14,2.747,26.8,26.8,0,0,1-3.364.322c-1.177.063-2.355.114-3.532.133q-3.14.055-6.28.051c-1.142,0-2.288-.027-3.43-.067s-2.292-.1-3.442-.165a19.492,19.492,0,0,1-2.979-.33,3.721,3.721,0,0,1-3.018-2.842,17.109,17.109,0,0,1-.451-3.281c-.067-.989-.094-1.962-.141-2.975a.844.844,0,0,0-.02-.133v-1.7a.785.785,0,0,0,.02-.133c.027-1.276.086-2.547.212-3.815a14.271,14.271,0,0,1,.392-2.449,3.721,3.721,0,0,1,2.83-2.806,11.382,11.382,0,0,1,1.9-.271c1.35-.1,2.7-.181,4.055-.232s2.7-.063,4.051-.09Zm6.508,10.664-7.94-4.573v9.141Z" transform="translate(-22.08 -34)"/>
  </g>
</svg>
